<?xml version="1.0" encoding="UTF-8"?>
<svg version="1.1" xmlns="http://www.w3.org/2000/svg" width="364" height="332">
<path d="M0 0 C2.5138022 2.29998988 4.12931764 4.68305911 5.828125 7.62890625 C6.37259277 8.56774658 6.91706055 9.50658691 7.47802734 10.47387695 C8.06277832 11.49312256 8.6475293 12.51236816 9.25 13.5625 C10.17546631 15.16194458 10.17546631 15.16194458 11.11962891 16.79370117 C13.08489129 20.1928662 15.04328065 23.595911 17 27 C19.45748924 31.2713197 21.91588834 35.54211417 24.375 39.8125 C25.29708252 41.41532837 25.29708252 41.41532837 26.23779297 43.05053711 C30.88624431 51.11406674 35.61564294 59.1267214 40.375 67.125 C44.8876562 74.70886535 49.35704162 82.30642821 53.64355469 90.02050781 C57.46752472 96.88505271 61.44931766 103.65660419 65.41748047 110.43847656 C69.89108567 118.08801824 74.32846538 125.75775678 78.75 133.4375 C82.8036652 140.47612749 86.86743996 147.50737163 91 154.5 C99.11532929 168.23599037 107.02744596 182.09155077 114.98046875 195.921875 C120.92775053 206.25728432 126.89079419 216.5757069 133.05859375 226.78125 C135.0809226 230.13416543 137.0787667 233.49910397 139.0625 236.875 C139.91521484 238.32519531 139.91521484 238.32519531 140.78515625 239.8046875 C142 242 142 242 142 243 C112.12331551 243.12840976 82.24662722 243.25590625 52.36993364 243.38218227 C48.81766732 243.39719696 45.26540103 243.41221919 41.71313477 243.42724609 C40.65264554 243.43173202 40.65264554 243.43173202 39.57073229 243.43630856 C28.22380834 243.48432446 16.87688707 243.53294664 5.52996672 243.58180541 C-6.17150696 243.63217688 -17.87298339 243.68186782 -29.57446247 243.73096704 C-36.12232573 243.75846024 -42.67018743 243.78625762 -49.21804619 243.81480408 C-62.25455973 243.87143893 -75.29105709 243.92328422 -88.32763225 243.96357012 C-94.71810342 243.98456398 -101.10833951 244.01832083 -107.49868554 244.0633378 C-111.39556417 244.08937046 -115.29245361 244.1077269 -119.18938267 244.12432003 C-120.98191763 244.13378824 -122.77443796 244.14675656 -124.56692016 244.1634531 C-126.985468 244.18567224 -129.40377095 244.19586191 -131.82240295 244.20300293 C-132.88266927 244.2174421 -132.88266927 244.2174421 -133.96435511 244.23217297 C-138.77191459 244.22808541 -138.77191459 244.22808541 -141 242 C-138.92207545 238.3684977 -136.84067744 234.73901572 -134.75610352 231.11132812 C-134.04812467 229.8781477 -133.34108108 228.64442984 -132.63500977 227.41015625 C-131.6172306 225.63137378 -130.59605193 223.85458098 -129.57421875 222.078125 C-128.96151123 221.00981445 -128.34880371 219.94150391 -127.7175293 218.84082031 C-126.86735229 217.43461426 -126.86735229 217.43461426 -126 216 C-125.46099705 214.93699362 -125.46099705 214.93699362 -124.91110516 213.85251236 C-121.93423053 210.96690608 -118.62669153 211.46217988 -114.70478821 211.51898193 C-113.84876249 211.51556423 -112.99273677 211.51214653 -112.11077088 211.50862527 C-109.23146964 211.5020167 -106.35309284 211.52407136 -103.47387695 211.54589844 C-101.41434756 211.54702627 -99.35481655 211.54639431 -97.29528809 211.54412842 C-91.69426467 211.54297785 -86.09358191 211.56654274 -80.49263787 211.59442425 C-74.64299244 211.61938078 -68.79333974 211.62177536 -62.94364929 211.62652588 C-51.86201748 211.63897257 -40.78054297 211.67181714 -29.69898051 211.71192384 C-17.08490467 211.75658885 -4.47082143 211.77861533 8.14331377 211.79870558 C34.09562982 211.84054824 60.04780611 211.91093322 86 212 C84.42046086 209.13663879 82.83747519 206.27519672 81.25390625 203.4140625 C80.81099243 202.61105713 80.36807861 201.80805176 79.91174316 200.98071289 C77.35884695 196.37258851 74.72987286 191.84212443 71.9375 187.375 C69.12481207 182.87358094 66.45549783 178.32362882 63.875 173.6875 C60.12354896 166.95120954 56.26910186 160.27980548 52.375 153.625 C47.3020951 144.95527134 42.26189795 136.26764259 37.25 127.5625 C32.82345438 119.87641737 28.37295975 112.20658565 23.85986328 104.57104492 C16.12097364 91.45143371 8.54486189 78.23194372 1 65 C-1.76833765 68.31504505 -4.03318709 71.60605102 -6.1015625 75.39453125 C-6.66939453 76.42497559 -7.23722656 77.45541992 -7.82226562 78.51708984 C-8.41716797 79.6045752 -9.01207031 80.69206055 -9.625 81.8125 C-14.08672074 89.88570221 -18.60554272 97.87308305 -23.62744141 105.61254883 C-26.43133732 109.96015567 -28.90907834 114.44475554 -31.36621094 118.99658203 C-34.29180673 124.37474692 -37.33685517 129.68484717 -40.375 135 C-40.71405365 135.59362335 -41.0531073 136.1872467 -41.4024353 136.79885864 C-49.11384822 150.29074794 -57.02614071 163.66183983 -65 177 C-65.38865234 177.92651367 -65.77730469 178.85302734 -66.17773438 179.80761719 C-68 182 -68 182 -71.73706055 182.56762695 C-73.28717207 182.56683644 -74.83742544 182.53864584 -76.38671875 182.48828125 C-77.20372757 182.48120651 -78.02073639 182.47413177 -78.86250305 182.46684265 C-81.47176737 182.43885512 -84.0788846 182.37611306 -86.6875 182.3125 C-88.45634921 182.28742256 -90.22523207 182.26460842 -91.99414062 182.24414062 C-96.33025424 182.18901471 -100.66476315 182.10271575 -105 182 C-103.33446131 177.70224984 -101.28025418 173.7481799 -99 169.75 C-98.60337158 169.04963623 -98.20674316 168.34927246 -97.7980957 167.62768555 C-94.56940888 161.94825544 -91.26084721 156.31723247 -87.93457031 150.69458008 C-84.65335254 145.13862622 -81.44182507 139.5452137 -78.25 133.9375 C-73.36748919 125.36318102 -68.41568812 116.83138489 -63.43383789 108.31445312 C-58.98687261 100.7067894 -54.58172538 93.07572521 -50.1875 85.4375 C-46.014857 78.18794783 -41.81387034 70.96283153 -37.47558594 63.8112793 C-33.87191398 57.84342017 -30.41075061 51.79439863 -26.9375 45.75 C-21.44185001 36.18877655 -15.87928296 26.67061316 -10.25 17.1875 C-9.90589081 16.60778442 -9.56178162 16.02806885 -9.20724487 15.43078613 C-6.14895091 10.28069075 -3.0841609 5.13465145 0 0 Z " fill="#050505" transform="translate(188,50)"/>
<path d="M0 0 C1.98 0 3.96 0 6 0 C7.32 2.64 8.64 5.28 10 8 C11.32 5.36 12.64 2.72 14 0 C15.65 0 17.3 0 19 0 C19 6.93 19 13.86 19 21 C17.35 20.67 15.7 20.34 14 20 C13.67 18.68 13.34 17.36 13 16 C12.67 16.66 12.34 17.32 12 18 C10.35 17.67 8.7 17.34 7 17 C6.34 18.32 5.68 19.64 5 21 C3.35 20.67 1.7 20.34 0 20 C0 13.4 0 6.8 0 0 Z " fill="#29292A" transform="translate(70,239)"/>
<path d="M0 0 C13.32554945 -0.36675824 13.32554945 -0.36675824 15.91796875 1.04296875 C17.59783503 4.08128286 17.51288416 7.11790677 17.5 10.5 C17.52835938 11.17675781 17.55671875 11.85351562 17.5859375 12.55078125 C17.59375 14.53125 17.59375 14.53125 17 18 C12.12500141 22.46503527 6.20708334 21.20462912 0 21 C0 14.07 0 7.14 0 0 Z M5 5 C5 5.99 5 6.98 5 8 C6.98 8 8.96 8 11 8 C11.33 7.01 11.66 6.02 12 5 C9.69 5 7.38 5 5 5 Z M5 13 C5 13.66 5 14.32 5 15 C7.31 15 9.62 15 12 15 C12 14.34 12 13.68 12 13 C9.69 13 7.38 13 5 13 Z " fill="#1F1F1F" transform="translate(188,239)"/>
<path d="M0 0 C5.61 0 11.22 0 17 0 C17 1.65 17 3.3 17 5 C13.04 5 9.08 5 5 5 C5 6.32 5 7.64 5 9 C8.3 9 11.6 9 15 9 C15 10.65 15 12.3 15 14 C15.66 14.33 16.32 14.66 17 15 C17.042721 16.66611905 17.04063832 18.33382885 17 20 C16 21 16 21 12.40234375 21.09765625 C10.91402745 21.09191272 9.42573704 21.07889891 7.9375 21.0625 C5.318125 21.041875 2.69875 21.02125 0 21 C0 14.07 0 7.14 0 0 Z " fill="#272727" transform="translate(141,239)"/>
<path d="M0 0 C1.16015625 0.08314453 1.16015625 0.08314453 2.34375 0.16796875 C4.5 0.8125 4.5 0.8125 6.25390625 2.48828125 C7.82238723 5.41381788 7.93336282 7.50275274 7.9375 10.8125 C7.96650391 12.359375 7.96650391 12.359375 7.99609375 13.9375 C7.38008425 17.50744482 6.35756785 18.64416947 3.5 20.8125 C-0.44120491 22.24637773 -3.6252012 22.20336755 -7.4375 20.5 C-9.5 18.8125 -9.5 18.8125 -10.5 16.8125 C-10.6481544 14.85800156 -10.72124849 12.8973947 -10.75 10.9375 C-10.77578125 9.88820312 -10.8015625 8.83890625 -10.828125 7.7578125 C-10.46042064 4.45722815 -9.8225111 3.14586396 -7.5 0.8125 C-4.54526402 -0.17241199 -3.03452345 -0.26804957 0 0 Z M-5.5 6.8125 C-5.66053815 8.68571948 -5.66053815 8.68571948 -5.625 10.8125 C-5.62757812 11.534375 -5.63015625 12.25625 -5.6328125 13 C-5.69695276 14.83339415 -5.69695276 14.83339415 -4.5 15.8125 C-1.5 15.97916667 -1.5 15.97916667 1.5 15.8125 C2.69695276 14.83339415 2.69695276 14.83339415 2.6328125 13 C2.63023438 12.278125 2.62765625 11.55625 2.625 10.8125 C2.62757812 10.090625 2.63015625 9.36875 2.6328125 8.625 C2.69695276 6.79160585 2.69695276 6.79160585 1.5 5.8125 C-2.30240375 5.33513947 -2.30240375 5.33513947 -5.5 6.8125 Z " fill="#2C2D2D" transform="translate(102.5,238.1875)"/>
<path d="M0 0 C1.98 0 3.96 0 6 0 C6.99 2.97 7.98 5.94 9 9 C10.32 6.03 11.64 3.06 13 0 C14.98 0 16.96 0 19 0 C17.52963969 5.23537382 15.94432532 10.43732746 14.125 15.5625 C13.83882812 16.38878906 13.55265625 17.21507812 13.2578125 18.06640625 C12 20 12 20 9.3671875 20.77734375 C8.58601563 20.85082031 7.80484375 20.92429687 7 21 C5.82807565 17.87694627 4.66336124 14.75125261 3.5 11.625 C3.16613281 10.73554688 2.83226563 9.84609375 2.48828125 8.9296875 C2.01455078 7.65351563 2.01455078 7.65351563 1.53125 6.3515625 C1.09135742 5.17327881 1.09135742 5.17327881 0.64257812 3.97119141 C0 2 0 2 0 0 Z " fill="#292929" transform="translate(111,239)"/>
<path d="M0 0 C1.65 0 3.3 0 5 0 C5 4.95 5 9.9 5 15 C8.63 15 12.26 15 16 15 C16 16.65 16 18.3 16 20 C15 21 15 21 11.875 21.1328125 C10.59625 21.13023437 9.3175 21.12765625 8 21.125 C6.72125 21.12757813 5.4425 21.13015625 4.125 21.1328125 C1 21 1 21 0 20 C-0.08669432 18.5112814 -0.10703494 17.018555 -0.09765625 15.52734375 C-0.09443359 14.62822266 -0.09121094 13.72910156 -0.08789062 12.80273438 C-0.07951172 11.85720703 -0.07113281 10.91167969 -0.0625 9.9375 C-0.05798828 8.98810547 -0.05347656 8.03871094 -0.04882812 7.06054688 C-0.0370011 4.70696935 -0.02052025 2.35351523 0 0 Z " fill="#535453" transform="translate(160,239)"/>
<path d="M0 0 C1.65 0 3.3 0 5 0 C5 6.93 5 13.86 5 21 C3.35 20.67 1.7 20.34 0 20 C-0.33 18.68 -0.66 17.36 -1 16 C-2.32 16.33 -3.64 16.66 -5 17 C-4.67 16.01 -4.34 15.02 -4 14 C-4.66 14 -5.32 14 -6 14 C-5.41892368 10.2397015 -4.34800504 7.46964968 -2.4375 4.1875 C-1.98246094 3.39730469 -1.52742188 2.60710937 -1.05859375 1.79296875 C-0.53458984 0.90544922 -0.53458984 0.90544922 0 0 Z " fill="#242425" transform="translate(84,239)"/>
<path d="M0 0 C1.98 0 3.96 0 6 0 C6 6.6 6 13.2 6 20 C4.35 20.33 2.7 20.66 1 21 C0 20 0 20 -0.11352539 18.05053711 C-0.10567017 16.8015564 -0.10567017 16.8015564 -0.09765625 15.52734375 C-0.09443359 14.62822266 -0.09121094 13.72910156 -0.08789062 12.80273438 C-0.07951172 11.85720703 -0.07113281 10.91167969 -0.0625 9.9375 C-0.05798828 8.98810547 -0.05347656 8.03871094 -0.04882812 7.06054688 C-0.0370011 4.70696935 -0.02052025 2.35351523 0 0 Z " fill="#444545" transform="translate(132,239)"/>
<path d="M0 0 C1.98 0 3.96 0 6 0 C6.09733092 7.09434233 6.10087193 13.98194143 5 21 C3.35 20.67 1.7 20.34 0 20 C0 13.4 0 6.8 0 0 Z " fill="#242425" transform="translate(179,239)"/>
<path d="M0 0 C3 3 3 3 4 6 C3.72428861 8.00875442 3.39764263 10.01178687 3 12 C2.278125 12.103125 1.55625 12.20625 0.8125 12.3125 C-2.09552566 12.87460886 -2.09552566 12.87460886 -4.6875 14.625 C-5.450625 15.07875 -6.21375 15.5325 -7 16 C-7.66 15.67 -8.32 15.34 -9 15 C-6.03 10.05 -3.06 5.1 0 0 Z " fill="#151615" transform="translate(188,50)"/>
<path d="M0 0 C3.24512351 2.78153444 3.86692388 4.73384776 6 9 C1.38 9 -3.24 9 -8 9 C-8.33 7.35 -8.66 5.7 -9 4 C-4.25 2.875 -4.25 2.875 -2 4 C-2 3.34 -2 2.68 -2 2 C-1.34 2 -0.68 2 0 2 C0 1.34 0 0.68 0 0 Z " fill="#060607" transform="translate(324,284)"/>
<path d="M0 0 C0 0.33 0 0.66 0 1 C-0.969375 1.28875 -1.93875 1.5775 -2.9375 1.875 C-6.10664203 2.64214682 -6.10664203 2.64214682 -7 5 C-4.69 5 -2.38 5 0 5 C0 5.33 0 5.66 0 6 C-1.98 6.33 -3.96 6.66 -6 7 C-6.33 9.31 -6.66 11.62 -7 14 C-7.33 14 -7.66 14 -8 14 C-8.33 11.36 -8.66 8.72 -9 6 C-9.33 6 -9.66 6 -10 6 C-10.33 9.63 -10.66 13.26 -11 17 C-11.33 17 -11.66 17 -12 17 C-12.08133791 15.08404032 -12.13934367 13.16708068 -12.1875 11.25 C-12.22230469 10.18265625 -12.25710937 9.1153125 -12.29296875 8.015625 C-11.96625336 4.65263456 -11.36910987 3.36358747 -9 1 C-5.8035914 -0.06546953 -3.34252724 -0.07427838 0 0 Z " fill="#4E504F" transform="translate(104,238)"/>
<path d="M0 0 C1.21236328 0.01353516 1.21236328 0.01353516 2.44921875 0.02734375 C3.37154297 0.04474609 3.37154297 0.04474609 4.3125 0.0625 C4.3125 1.3825 4.3125 2.7025 4.3125 4.0625 C0.0225 4.0625 -4.2675 4.0625 -8.6875 4.0625 C-8.3575 3.0725 -8.0275 2.0825 -7.6875 1.0625 C-4.80538698 0.10179566 -2.98899956 -0.04331883 0 0 Z " fill="#010101" transform="translate(170.6875,254.9375)"/>
<path d="M0 0 C1.98 0 3.96 0 6 0 C6.28875 0.804375 6.5775 1.60875 6.875 2.4375 C7.73262568 5.1326468 7.73262568 5.1326468 10 6 C9.01 6.33 8.02 6.66 7 7 C7 6.34 7 5.68 7 5 C4.03 4.67 1.06 4.34 -2 4 C-1.34 2.68 -0.68 1.36 0 0 Z " fill="#060707" transform="translate(99,239)"/>
<path d="M0 0 C1.98 0 3.96 0 6 0 C6 4.29 6 8.58 6 13 C5.67 13 5.34 13 5 13 C4.67 10.36 4.34 7.72 4 5 C2.68 5.33 1.36 5.66 0 6 C0 4.02 0 2.04 0 0 Z " fill="#696969" transform="translate(179,239)"/>
<path d="M0 0 C0 4.29 0 8.58 0 13 C-0.99 13 -1.98 13 -3 13 C-4.4480619 4.83502445 -4.4480619 4.83502445 -2.625 1.4375 C-1 0 -1 0 0 0 Z " fill="#060607" transform="translate(88,246)"/>
<path d="M0 0 C0 0.66 0 1.32 0 2 C-1.72526042 2.9765625 -3.45052083 3.953125 -5.17578125 4.9296875 C-6.81982289 5.89428581 -8.41400588 6.94267059 -10 8 C-10.99 6.02 -11.98 4.04 -13 2 C-12.113125 2.226875 -11.22625 2.45375 -10.3125 2.6875 C-5.7574861 3.11721829 -4.10071429 0 0 0 Z " fill="#232323" transform="translate(254,202)"/>
<path d="M0 0 C2.96865509 2.54456151 4.3619751 5.48994665 6 9 C4.35 9 2.7 9 1 9 C0.67 7.35 0.34 5.7 0 4 C-0.66 4 -1.32 4 -2 4 C-2 3.34 -2 2.68 -2 2 C-1.34 2 -0.68 2 0 2 C0 1.34 0 0.68 0 0 Z " fill="#242527" transform="translate(324,284)"/>
<path d="M0 0 C2.2477975 2.05233685 3.0022242 3.00667261 4 6 C3.01 7.485 3.01 7.485 2 9 C0.35 7.68 -1.3 6.36 -3 5 C-2.01 3.35 -1.02 1.7 0 0 Z " fill="#232324" transform="translate(188,50)"/>
<path d="M0 0 C0.66 0.33 1.32 0.66 2 1 C2.4140625 3.06640625 2.4140625 3.06640625 2.625 5.5625 C2.69976562 6.38878906 2.77453125 7.21507812 2.8515625 8.06640625 C2.92503906 9.02353516 2.92503906 9.02353516 3 10 C1.68 10 0.36 10 -1 10 C-1.02689216 8.52093108 -1.04634621 7.04172517 -1.0625 5.5625 C-1.07410156 4.73878906 -1.08570312 3.91507813 -1.09765625 3.06640625 C-1 1 -1 1 0 0 Z " fill="#060606" transform="translate(94,243)"/>
<path d="M0 0 C2 0 2 0 3.625 1.375 C5 3 5 3 5 5 C5.66 5.66 6.32 6.32 7 7 C5.35 6.67 3.7 6.34 2 6 C1.34 6.99 0.68 7.98 0 9 C0 6.03 0 3.06 0 0 Z " fill="#787878" transform="translate(75,250)"/>
<path d="M0 0 C0.99 0 1.98 0 3 0 C1.80100302 3.0831351 0.52299523 6.06279492 -1 9 C-1.99 8.34 -2.98 7.68 -4 7 C-3.34 6.34 -2.68 5.68 -2 5 C-2 4.01 -2 3.02 -2 2 C-1.34 1.34 -0.68 0.68 0 0 Z " fill="#252525" transform="translate(160,156)"/>
<path d="M0 0 C2.31 0 4.62 0 7 0 C7 1.32 7 2.64 7 4 C5.35 4 3.7 4 2 4 C1.34 2.68 0.68 1.36 0 0 Z " fill="#070707" transform="translate(150,255)"/>
<path d="M0 0 C1 3 1 3 -0.1875 6.5625 C-1.94478806 9.8952877 -2.50915788 10.91663521 -6 12 C-4.43358249 7.69235185 -2.31663844 3.93828536 0 0 Z " fill="#424344" transform="translate(105,192)"/>
<path d="M0 0 C3 1 3 1 3 1 Z M-2 1 C-0.0625 1.75 -0.0625 1.75 2 3 C2.75 5.125 2.75 5.125 3 7 C2.01 7 1.02 7 0 7 C-0.66 5.02 -1.32 3.04 -2 1 Z " fill="#3A3A3B" transform="translate(261,233)"/>
<path d="M0 0 C0.99 0 1.98 0 3 0 C2.74438677 2.3431213 2.40729228 4.67843403 2 7 C1.01 7.495 1.01 7.495 0 8 C0 5.36 0 2.72 0 0 Z " fill="#000101" transform="translate(161,239)"/>
<path d="M0 0 C0 0.33 0 0.66 0 1 C-3.31114834 2.12880057 -6.58978257 3.21302675 -10 4 C-9.67 3.01 -9.34 2.02 -9 1 C-5.8035914 -0.06546953 -3.34252724 -0.07427838 0 0 Z " fill="#595B5B" transform="translate(104,238)"/>
</svg>
